<svg width="140.48" height="19.98" viewBox="0 0 140.48 19.98" xmlns="http://www.w3.org/2000/svg"><g id="svgGroup" stroke-linecap="round" fill-rule="nonzero" font-size="9pt" stroke="#ededed" stroke-width="0.1mm" fill="#ffffff" style="stroke:#ededed;stroke-width:0.1mm;fill:#ffffff"><path d="M 1.62 15.4 L 0 15.4 L 0 1 L 13.14 1 L 13.14 2.62 L 1.62 2.62 L 1.62 7.38 L 10.88 7.38 L 10.88 9.02 L 1.62 9.02 L 1.62 15.4 Z M 40.04 15.4 L 38.4 15.4 L 38.4 0 L 40.04 0 L 40.04 3.8 L 47.8 3.8 Q 48.46 3.8 49.01 4.13 Q 49.56 4.46 49.89 5.01 Q 50.22 5.56 50.22 6.22 L 50.22 15.4 L 48.58 15.4 L 48.58 6.22 A 0.749 0.749 0 0 0 48.357 5.677 A 0.925 0.925 0 0 0 48.35 5.67 A 0.77 0.77 0 0 0 48.046 5.478 A 0.778 0.778 0 0 0 47.8 5.44 L 40.84 5.44 Q 40.52 5.44 40.28 5.67 Q 40.04 5.9 40.04 6.22 L 40.04 15.4 Z M 124.4 19.98 L 117.16 19.98 L 117.16 18.32 L 124.4 18.32 A 0.749 0.749 0 0 0 124.943 18.097 A 0.925 0.925 0 0 0 124.95 18.09 A 0.77 0.77 0 0 0 125.142 17.786 A 0.778 0.778 0 0 0 125.18 17.54 L 125.18 15.4 L 117.44 15.4 Q 116.78 15.4 116.23 15.07 Q 115.68 14.74 115.35 14.19 Q 115.02 13.64 115.02 12.98 L 115.02 6.22 Q 115.02 5.56 115.35 5.01 Q 115.68 4.46 116.23 4.13 Q 116.78 3.8 117.44 3.8 L 124.4 3.8 Q 125.08 3.8 125.63 4.13 Q 126.18 4.46 126.5 5.01 Q 126.82 5.56 126.82 6.22 L 126.82 17.54 A 2.485 2.485 0 0 1 126.672 18.404 A 2.313 2.313 0 0 1 126.5 18.77 Q 126.18 19.32 125.63 19.65 A 2.334 2.334 0 0 1 124.448 19.98 A 2.774 2.774 0 0 1 124.4 19.98 Z M 117.44 13.76 L 124.4 13.76 A 0.749 0.749 0 0 0 124.943 13.537 A 0.925 0.925 0 0 0 124.95 13.53 A 0.77 0.77 0 0 0 125.142 13.226 A 0.778 0.778 0 0 0 125.18 12.98 L 125.18 6.22 A 0.749 0.749 0 0 0 124.957 5.677 A 0.925 0.925 0 0 0 124.95 5.67 A 0.77 0.77 0 0 0 124.646 5.478 A 0.778 0.778 0 0 0 124.4 5.44 L 117.44 5.44 A 0.749 0.749 0 0 0 116.897 5.663 A 0.925 0.925 0 0 0 116.89 5.67 A 0.77 0.77 0 0 0 116.698 5.974 A 0.778 0.778 0 0 0 116.66 6.22 L 116.66 12.98 A 0.749 0.749 0 0 0 116.883 13.523 A 0.925 0.925 0 0 0 116.89 13.53 A 0.77 0.77 0 0 0 117.194 13.722 A 0.778 0.778 0 0 0 117.44 13.76 Z M 138.06 19.98 L 130.82 19.98 L 130.82 18.32 L 138.06 18.32 A 0.749 0.749 0 0 0 138.603 18.097 A 0.925 0.925 0 0 0 138.61 18.09 A 0.77 0.77 0 0 0 138.802 17.786 A 0.778 0.778 0 0 0 138.84 17.54 L 138.84 15.4 L 131.1 15.4 Q 130.44 15.4 129.89 15.07 Q 129.34 14.74 129.01 14.19 Q 128.68 13.64 128.68 12.98 L 128.68 6.22 Q 128.68 5.56 129.01 5.01 Q 129.34 4.46 129.89 4.13 Q 130.44 3.8 131.1 3.8 L 138.06 3.8 Q 138.74 3.8 139.29 4.13 Q 139.84 4.46 140.16 5.01 Q 140.48 5.56 140.48 6.22 L 140.48 17.54 A 2.485 2.485 0 0 1 140.332 18.404 A 2.313 2.313 0 0 1 140.16 18.77 Q 139.84 19.32 139.29 19.65 A 2.334 2.334 0 0 1 138.108 19.98 A 2.774 2.774 0 0 1 138.06 19.98 Z M 131.1 13.76 L 138.06 13.76 A 0.749 0.749 0 0 0 138.603 13.537 A 0.925 0.925 0 0 0 138.61 13.53 A 0.77 0.77 0 0 0 138.802 13.226 A 0.778 0.778 0 0 0 138.84 12.98 L 138.84 6.22 A 0.749 0.749 0 0 0 138.617 5.677 A 0.925 0.925 0 0 0 138.61 5.67 A 0.77 0.77 0 0 0 138.306 5.478 A 0.778 0.778 0 0 0 138.06 5.44 L 131.1 5.44 A 0.749 0.749 0 0 0 130.557 5.663 A 0.925 0.925 0 0 0 130.55 5.67 A 0.77 0.77 0 0 0 130.358 5.974 A 0.778 0.778 0 0 0 130.32 6.22 L 130.32 12.98 A 0.749 0.749 0 0 0 130.543 13.523 A 0.925 0.925 0 0 0 130.55 13.53 A 0.77 0.77 0 0 0 130.854 13.722 A 0.778 0.778 0 0 0 131.1 13.76 Z M 67.08 15.4 L 65.44 15.4 L 65.44 3.8 L 74.84 3.8 Q 75.5 3.8 76.05 4.13 Q 76.6 4.46 76.93 5.01 Q 77.26 5.56 77.26 6.22 L 77.26 15.4 L 75.62 15.4 L 75.62 6.22 A 0.749 0.749 0 0 0 75.397 5.677 A 0.925 0.925 0 0 0 75.39 5.67 A 0.77 0.77 0 0 0 75.086 5.478 A 0.778 0.778 0 0 0 74.84 5.44 L 67.88 5.44 Q 67.56 5.44 67.32 5.67 Q 67.08 5.9 67.08 6.22 L 67.08 15.4 Z M 26.16 15.4 L 16.76 15.4 Q 16.1 15.4 15.55 15.07 Q 15 14.74 14.67 14.19 Q 14.34 13.64 14.34 12.98 L 14.34 8.78 L 24.5 8.78 L 24.5 6.22 A 0.749 0.749 0 0 0 24.277 5.677 A 0.925 0.925 0 0 0 24.27 5.67 A 0.77 0.77 0 0 0 23.966 5.478 A 0.778 0.778 0 0 0 23.72 5.44 L 14.34 5.44 L 14.34 3.8 L 23.72 3.8 Q 24.4 3.8 24.95 4.13 Q 25.5 4.46 25.83 5.01 Q 26.16 5.56 26.16 6.22 L 26.16 15.4 Z M 16.76 13.76 L 24.5 13.76 L 24.5 10.42 L 15.98 10.42 L 15.98 12.98 A 0.749 0.749 0 0 0 16.203 13.523 A 0.925 0.925 0 0 0 16.21 13.53 A 0.77 0.77 0 0 0 16.514 13.722 A 0.778 0.778 0 0 0 16.76 13.76 Z M 63.64 15.4 L 54.24 15.4 Q 53.58 15.4 53.03 15.07 Q 52.48 14.74 52.15 14.19 Q 51.82 13.64 51.82 12.98 L 51.82 8.78 L 61.98 8.78 L 61.98 6.22 A 0.749 0.749 0 0 0 61.757 5.677 A 0.925 0.925 0 0 0 61.75 5.67 A 0.77 0.77 0 0 0 61.446 5.478 A 0.778 0.778 0 0 0 61.2 5.44 L 51.82 5.44 L 51.82 3.8 L 61.2 3.8 Q 61.88 3.8 62.43 4.13 Q 62.98 4.46 63.31 5.01 Q 63.64 5.56 63.64 6.22 L 63.64 15.4 Z M 54.24 13.76 L 61.98 13.76 L 61.98 10.42 L 53.46 10.42 L 53.46 12.98 A 0.749 0.749 0 0 0 53.683 13.523 A 0.925 0.925 0 0 0 53.69 13.53 A 0.77 0.77 0 0 0 53.994 13.722 A 0.778 0.778 0 0 0 54.24 13.76 Z M 101.38 12.98 L 101.38 6.22 Q 101.38 5.56 101.71 5.01 Q 102.04 4.46 102.59 4.13 Q 103.14 3.8 103.8 3.8 L 110.76 3.8 Q 111.44 3.8 111.99 4.13 Q 112.54 4.46 112.87 5.01 Q 113.2 5.56 113.2 6.22 L 113.2 10.42 L 103.02 10.42 L 103.02 12.98 A 0.749 0.749 0 0 0 103.243 13.523 A 0.925 0.925 0 0 0 103.25 13.53 A 0.77 0.77 0 0 0 103.554 13.722 A 0.778 0.778 0 0 0 103.8 13.76 L 113.2 13.76 L 113.2 15.4 L 103.8 15.4 Q 103.14 15.4 102.59 15.07 Q 102.04 14.74 101.71 14.19 Q 101.38 13.64 101.38 12.98 Z M 103.02 6.22 L 103.02 8.78 L 111.54 8.78 L 111.54 6.22 A 0.749 0.749 0 0 0 111.317 5.677 A 0.925 0.925 0 0 0 111.31 5.67 A 0.77 0.77 0 0 0 111.006 5.478 A 0.778 0.778 0 0 0 110.76 5.44 L 103.8 5.44 A 0.749 0.749 0 0 0 103.257 5.663 A 0.925 0.925 0 0 0 103.25 5.67 A 0.77 0.77 0 0 0 103.058 5.974 A 0.778 0.778 0 0 0 103.02 6.22 Z M 84.9 15.4 L 84.9 1 L 96.28 1 Q 96.94 1 97.49 1.32 Q 98.04 1.64 98.36 2.19 Q 98.68 2.74 98.68 3.4 L 98.68 6.46 Q 98.68 6.74 98.61 7.01 Q 98.54 7.28 98.42 7.52 Q 98.737 7.995 98.939 8.377 A 5.434 5.434 0 0 1 99.08 8.66 Q 99.3 9.14 99.3 9.64 L 99.3 13 Q 99.3 13.66 98.98 14.21 Q 98.66 14.76 98.11 15.08 Q 97.56 15.4 96.9 15.4 L 84.9 15.4 Z M 87.3 13.78 L 96.9 13.78 A 0.749 0.749 0 0 0 97.443 13.557 A 0.925 0.925 0 0 0 97.45 13.55 A 0.77 0.77 0 0 0 97.642 13.246 A 0.778 0.778 0 0 0 97.68 13 L 97.68 9.64 A 0.749 0.749 0 0 0 97.457 9.097 A 0.925 0.925 0 0 0 97.45 9.09 A 0.77 0.77 0 0 0 97.146 8.898 A 0.778 0.778 0 0 0 96.9 8.86 L 87.3 8.86 A 0.749 0.749 0 0 0 86.757 9.083 A 0.925 0.925 0 0 0 86.75 9.09 A 0.77 0.77 0 0 0 86.558 9.394 A 0.778 0.778 0 0 0 86.52 9.64 L 86.52 13 A 0.749 0.749 0 0 0 86.743 13.543 A 0.925 0.925 0 0 0 86.75 13.55 A 0.77 0.77 0 0 0 87.054 13.742 A 0.778 0.778 0 0 0 87.3 13.78 Z M 87.3 7.24 L 96.28 7.24 A 0.717 0.717 0 0 0 96.806 7.024 A 0.863 0.863 0 0 0 96.82 7.01 Q 97.04 6.78 97.04 6.46 L 97.04 3.4 Q 97.04 3.08 96.82 2.85 A 0.716 0.716 0 0 0 96.3 2.62 A 0.878 0.878 0 0 0 96.28 2.62 L 87.3 2.62 A 0.749 0.749 0 0 0 86.757 2.843 A 0.925 0.925 0 0 0 86.75 2.85 A 0.77 0.77 0 0 0 86.558 3.154 A 0.778 0.778 0 0 0 86.52 3.4 L 86.52 6.46 A 0.749 0.749 0 0 0 86.743 7.003 A 0.925 0.925 0 0 0 86.75 7.01 A 0.77 0.77 0 0 0 87.054 7.202 A 0.778 0.778 0 0 0 87.3 7.24 Z M 29.76 15.4 L 28.12 15.4 L 28.12 6.22 Q 28.12 5.56 28.45 5.01 Q 28.78 4.46 29.33 4.13 Q 29.88 3.8 30.54 3.8 L 37.06 3.8 L 37.06 5.44 L 30.54 5.44 A 0.749 0.749 0 0 0 29.997 5.663 A 0.925 0.925 0 0 0 29.99 5.67 A 0.77 0.77 0 0 0 29.798 5.974 A 0.778 0.778 0 0 0 29.76 6.22 L 29.76 15.4 Z" vector-effect="non-scaling-stroke"/></g></svg>